<?xml version="1.0" encoding="UTF-8" standalone="no"?>
<!-- Created with Inkscape (http://www.inkscape.org/) -->

<svg
   width="165.87297mm"
   height="42.733719mm"
   viewBox="0 0 165.87297 42.733719"
   version="1.1"
   id="svg1"
   xmlns:xlink="http://www.w3.org/1999/xlink"
   xmlns="http://www.w3.org/2000/svg"
   xmlns:svg="http://www.w3.org/2000/svg">
  <defs
     id="defs1">
    <linearGradient
       id="linearGradient478">
      <stop
         style="stop-color:#0000ff;stop-opacity:1;"
         offset="0"
         id="stop478" />
      <stop
         style="stop-color:#00ffff;stop-opacity:1;"
         offset="1"
         id="stop479" />
    </linearGradient>
    <linearGradient
       xlink:href="#linearGradient478"
       id="linearGradient485"
       gradientUnits="userSpaceOnUse"
       x1="71.999245"
       y1="144.80685"
       x2="242.74512"
       y2="144.80685"
       spreadMethod="pad"
       gradientTransform="translate(-2.305304,0.57632601)" />
    <clipPath
       clipPathUnits="userSpaceOnUse"
       id="clipPath55">
      <path
         id="path55"
         style="font-size:50.8px;font-family:'Future Tech';-inkscape-font-specification:'Future Tech, Normal';fill-rule:evenodd;stroke:#000000;stroke-width:0.264999"
         d="m 73.059105,124.29836 v 11.53159 h 6.451288 v -4.62297 h 18.237128 v 5.18159 c 0,0.88053 -0.152019,1.49016 -0.456819,1.82883 -0.270933,0.33867 -0.796163,0.50798 -1.575096,0.50798 H 73.059105 v 15.90032 h 6.451288 v -8.83925 h 9.804569 l 12.953728,15.90032 h 8.12819 L 97.443147,145.634 c 1.456267,-0.0677 2.624163,-0.38958 3.504693,-0.96531 0.88053,-0.57574 1.55831,-1.30382 2.03244,-2.18436 0.47414,-0.9144 0.77868,-1.89621 0.91415,-2.94608 0.16933,-1.08373 0.27099,-2.13368 0.30489,-3.14968 v -12.09021 z m 40.589255,0 v 16.96692 c 0,3.9624 0.20287,6.51938 0.60927,7.67085 v -0.0506 c 0.67734,1.76107 1.69372,3.16642 3.04839,4.21628 1.38853,1.016 2.97996,1.52393 4.7749,1.52393 h 24.13031 v -6.85798 h -24.13031 c -0.7112,0 -1.21914,-0.1693 -1.52394,-0.50797 -0.27093,-0.37253 -0.40617,-0.99895 -0.40617,-1.87948 v -2.3368 h 24.18043 v -7.01043 h -24.18043 v -4.77542 h 26.06042 v -6.95926 z m 40.84299,0 v 21.08191 c 0,1.28693 0.22015,2.50619 0.66042,3.65766 0.47413,1.1176 1.08376,2.0994 1.82883,2.94607 0.77893,0.8128 1.67634,1.45651 2.69234,1.93064 1.04986,0.47414 2.15067,0.71106 3.30213,0.71106 h 13.10617 v -6.85798 h -13.10617 c -0.74506,0 -1.2703,-0.1693 -1.5751,-0.50797 -0.27093,-0.37253 -0.40618,-0.99895 -0.40618,-1.87948 v -21.08191 z m 29.00701,0 v 30.32734 h 6.35 v -30.32734 z m 24.38404,0 c -0.77893,0.0339 -1.59195,0.21996 -2.43861,0.55862 -0.84667,0.33867 -1.64239,0.79575 -2.38745,1.37149 -0.74507,0.57573 -1.38877,1.25299 -1.93063,2.03192 -0.508,0.74507 -0.82985,1.57485 -0.96532,2.48925 v 14.07149 c -0.0677,1.28693 5.3e-4,2.48942 0.20361,3.60702 0.2032,1.1176 0.5586,2.06586 1.0666,2.84479 0.47413,0.6096 1.06698,1.18515 1.77818,1.72702 0.7112,0.54187 1.37116,0.94864 1.98076,1.21957 1.15147,0.27094 2.25227,0.40617 3.30213,0.40617 h 25.04446 v -6.85798 h -25.04446 c -0.64346,0 -1.15141,-0.20338 -1.52394,-0.60978 -0.37254,-0.44027 -0.491,-0.99905 -0.35554,-1.67638 l 0.10181,-12.5982 v -0.1018 c 0,-0.0339 0.0168,-0.0674 0.0506,-0.10129 0,-0.1016 0.0676,-0.23736 0.20309,-0.40669 0.16933,-0.16934 0.35542,-0.3722 0.55862,-0.60927 0.23706,-0.27093 0.57622,-0.40669 1.01648,-0.40669 h 24.9933 v -6.95926 z" />
    </clipPath>
  </defs>
  <g
     id="layer1"
     transform="translate(-6.9601654,-9.2623344)">
    <rect
       style="fill:#ffff00;fill-rule:evenodd;stroke:#ffff00;stroke-width:4.89365"
       id="rect1"
       width="123.44076"
       height="0.079706684"
       x="46.843334"
       y="49.460381" />
    <path
       style="font-size:50.8px;font-family:'Future Tech';-inkscape-font-specification:'Future Tech, Normal';fill-rule:evenodd;stroke:#000000;stroke-width:0.265"
       d="M 18.674904,21.383764 H 31.83224 v 0.50798 c 0,0.7112 -0.118467,1.21914 -0.355533,1.52394 -0.237067,0.3048 -0.660607,0.45733 -1.270207,0.45733 H 18.674904 Z"
       id="path11" />
    <path
       style="font-size:50.8px;font-family:'Future Tech';-inkscape-font-specification:'Future Tech, Normal';fill-rule:evenodd;stroke:#000000;stroke-width:0.265"
       d="m 142.37329,9.3948343 c -0.8128,0.0339 -1.67666,0.23725 -2.59106,0.6097797 -0.88053,0.33867 -1.71032,0.81254 -2.48925,1.42214 -0.77893,0.57573 -1.45619,1.27027 -2.03192,2.08307 -0.57573,0.8128 -0.94843,1.69344 -1.11776,2.6417 v 14.17278 c -0.0339,1.3208 0.0678,2.57413 0.30489,3.75946 0.23707,1.15147 0.60976,2.13379 1.11776,2.94659 0.27094,0.4064 0.59278,0.77858 0.96532,1.11725 0.37253,0.33866 0.762,0.64374 1.1684,0.91467 l 3.09852,3.09852 c 1.04987,1.04986 2.15066,1.79525 3.30213,2.23552 0.98213,0.27093 2.04885,0.40618 3.20032,0.40618 h 25.4 v -7.56905 l -4.26693,-4.16564 v -0.30489 h -22.70765 l 0.15244,-10.0583 0.0506,-0.0506 v -0.15245 c 0.0677,-0.13546 0.13536,-0.23716 0.20309,-0.30489 0.13547,-0.16933 0.30478,-0.33864 0.50798,-0.50798 0.2032,-0.16933 0.44014,-0.25425 0.71107,-0.25425 h 25.34936 v -7.5184 l -4.26693,-4.2162797 v -0.30489 z"
       id="path5" />
    <path
       style="font-size:50.8px;font-family:'Future Tech';-inkscape-font-specification:'Future Tech, Normal';fill-rule:evenodd;stroke:#000000;stroke-width:0.265"
       d="M 117.53191,9.3948343 V 40.636854 h 0.25373 l 4.2168,4.16564 h 6.95926 v -30.88649 l -4.16563,-4.2162797 v -0.30489 z"
       id="path4" />
    <path
       style="font-size:50.8px;font-family:'Future Tech';-inkscape-font-specification:'Future Tech, Normal';fill-rule:evenodd;stroke:#000000;stroke-width:0.265"
       d="M 88.626704,9.3948343 V 30.883444 c 0,1.69333 0.3554,3.25122 1.0666,4.67362 0.7112,1.38853 1.65945,2.52287 2.84479,3.40341 l 3.40392,3.35276 c 0.77894,0.77894 1.65905,1.38857 2.64119,1.82883 0.98213,0.44027 2.066136,0.66043 3.251476,0.66043 h 13.41107 v -7.51841 l -4.26693,-4.16563 v -0.3049 H 100.15829 V 13.916004 L 95.942014,9.6997243 v -0.30489 z"
       id="path3" />
    <path
       style="font-size:50.8px;font-family:'Future Tech';-inkscape-font-specification:'Future Tech, Normal';fill-rule:evenodd;stroke:#000000;stroke-width:0.265"
       d="M 47.681914,9.3948343 V 26.768454 c 0,2.032 0.0508,3.70835 0.15245,5.02915 0.13546,1.28693 0.30478,2.21841 0.50798,2.79414 0.33866,0.94827 0.79575,1.79483 1.37149,2.5399 0.57573,0.7112 1.20214,1.32083 1.87947,1.82883 l 3.45457,3.40341 c 0.77893,0.77893 1.65957,1.38856 2.6417,1.82882 0.98213,0.4064 2.06563,0.60979 3.25096,0.60979 h 24.38404 v -7.51841 l -4.11447,-4.06383 h 2.28565 v -7.62021 l -4.16564,-4.16564 h 5.99446 v -7.5184 l -4.21628,-4.2162797 v -0.30489 z"
       id="path2" />
    <path
       style="font-size:50.8px;font-family:'Future Tech';-inkscape-font-specification:'Future Tech, Normal';fill-rule:evenodd;stroke:#000000;stroke-width:0.265"
       d="M 7.0926655,9.3948343 V 21.789944 h 0.304891 l 2.031917,2.08307 h -2.336808 v 16.76384 h 0.304891 l 4.2162795,4.16564 h 7.061068 v -8.83926 h 8.381917 l 9.550313,11.73469 h 0.15245 l 4.2168,4.16563 h 8.88989 l -13.05553,-16.10341 c 1.4224,-0.13546 2.55674,-0.50816 3.40341,-1.11776 0.84667,-0.64346 1.49036,-1.40511 1.93063,-2.28565 0.47413,-0.9144 0.77869,-1.89672 0.91416,-2.94659 0.16933,-1.04986 0.27102,-2.08303 0.30489,-3.09903 v -12.39511 l -4.16564,-4.2162797 v -0.30489 z"
       id="text497" />
    <rect
       style="display:inline;fill:url(#linearGradient485);fill-opacity:1;fill-rule:evenodd;stroke:#00ffff;stroke-width:0.264999;stroke-dasharray:none;stroke-opacity:1"
       id="rect485"
       width="170.48087"
       height="44.284275"
       x="69.826439"
       y="123.24105"
       clip-path="url(#clipPath55)"
       transform="translate(-65.509056,-114.49677)" />
    <text
       xml:space="preserve"
       style="font-size:4.93889px;font-family:'Future Tech';-inkscape-font-specification:'Future Tech';text-align:start;writing-mode:lr-tb;direction:ltr;text-anchor:start;fill:#ffff00;fill-rule:evenodd;stroke:#ffff00;stroke-width:0.264583"
       x="71.085022"
       y="51.075932"
       id="text2"><tspan
         id="tspan2"
         style="font-size:4.93889px;stroke:#24221c;stroke-width:0.264583"
         x="71.085022"
         y="51.075932">Controle de qualidade</tspan></text>
  </g>
</svg>
