<?xml version="1.0" encoding="UTF-8" standalone="no"?>
<!-- Created with Inkscape (http://www.inkscape.org/) -->

<svg
   width="180.01315mm"
   height="26.134808mm"
   viewBox="0 0 180.01315 26.134808"
   version="1.1"
   id="svg1"
   xmlns:xlink="http://www.w3.org/1999/xlink"
   xmlns="http://www.w3.org/2000/svg"
   xmlns:svg="http://www.w3.org/2000/svg">
  <defs
     id="defs1">
    <linearGradient
       id="linearGradient14">
      <stop
         style="stop-color:#0003ff;stop-opacity:1;"
         offset="0"
         id="stop14" />
      <stop
         style="stop-color:#00ffff;stop-opacity:1;"
         offset="1"
         id="stop15" />
    </linearGradient>
    <linearGradient
       xlink:href="#linearGradient14"
       id="linearGradient15"
       x1="30.010712"
       y1="175.3091"
       x2="210.02394"
       y2="175.3091"
       gradientUnits="userSpaceOnUse"
       gradientTransform="translate(-17.659374,-14.670865)" />
  </defs>
  <g
     id="layer1"
     transform="translate(-12.351371,-147.57085)">
    <path
       style="font-weight:bold;font-size:25.4px;font-family:Orbitron;-inkscape-font-specification:'Orbitron Bold';fill:url(#linearGradient15);fill-rule:evenodd;stroke:#000000;stroke-width:1.065"
       d="m 12.883871,167.35654 v -14.7574 q 0,-0.9652 0.4826,-1.7526 0.4826,-0.8128 1.27,-1.2954 0.8128,-0.4826 1.778,-0.4826 h 11.2014 q 0.9652,0 1.778,0.4826 0.8128,0.4826 1.2954,1.2954 0.4826,0.7874 0.4826,1.7526 v 14.7574 h -3.3782 v -6.1468 h -11.557 v 6.1468 z m 3.3528,-9.4996 h 11.557 v -5.1054 q 0,-0.127 -0.1016,-0.2032 -0.1016,-0.1016 -0.2286,-0.1016 h -10.922 q -0.127,0 -0.2286,0.1016 -0.0762,0.0762 -0.0762,0.2032 z m 17.780011,9.4996 v 0 -14.732 h 18.2626 q 0.9906,0 1.778,0.4826 0.7874,0.4826 1.2446,1.27 0.4826,0.7874 0.4826,1.7526 v 11.2268 h -3.302 v -11.0998 q 0,-0.127 -0.1016,-0.2032 -0.1016,-0.1016 -0.2286,-0.1016 h -5.2578 q -0.127,0 -0.2286,0.1016 -0.0762,0.0762 -0.0762,0.2032 v 11.0998 h -3.3528 v -11.0998 q 0,-0.127 -0.1016,-0.2032 -0.0762,-0.1016 -0.2032,-0.1016 h -5.2832 q -0.127,0 -0.2286,0.1016 -0.0762,0.0762 -0.0762,0.2032 v 11.0998 z m 28.270216,0 q -0.9652,0 -1.7526,-0.4826 -0.7874,-0.4826 -1.27,-1.27 -0.4826,-0.7874 -0.4826,-1.7526 v -7.7216 q 0,-0.9652 0.4826,-1.7526 0.4826,-0.7874 1.27,-1.27 0.7874,-0.4826 1.7526,-0.4826 h 7.950199 q 0.9652,0 1.7526,0.4826 0.8128,0.4826 1.27,1.27 0.4826,0.7874 0.4826,1.7526 v 7.7216 q 0,0.9652 -0.4826,1.7526 -0.4572,0.7874 -1.2446,1.27 -0.7874,0.4826 -1.778,0.4826 z m 0.127,-3.3274 h 7.696199 q 0.127,0 0.2032,-0.0762 0.1016,-0.1016 0.1016,-0.2286 v -7.4676 q 0,-0.127 -0.1016,-0.2032 -0.0762,-0.1016 -0.2032,-0.1016 h -7.696199 q -0.127,0 -0.2286,0.1016 -0.0762,0.0762 -0.0762,0.2032 v 7.4676 q 0,0.127 0.0762,0.2286 0.1016,0.0762 0.2286,0.0762 z m 16.813058,3.3274 q -0.9652,0 -1.7526,-0.4826 -0.7874,-0.4826 -1.27,-1.27 -0.4826,-0.7874 -0.4826,-1.7526 v -0.5588 h 3.3274 v 0.4318 q 0,0.127 0.0762,0.2286 0.1016,0.0762 0.2286,0.0762 h 7.6962 q 0.127,0 0.2032,-0.0762 0.1016,-0.1016 0.1016,-0.2286 v -1.7526 q 0,-0.127 -0.1016,-0.2032 -0.0762,-0.1016 -0.2032,-0.1016 h -7.8232 q -0.9652,0 -1.7526,-0.4826 -0.7874,-0.4826 -1.27,-1.27 -0.4826,-0.7874 -0.4826,-1.7526 v -2.032 q 0,-0.9652 0.4826,-1.7526 0.4826,-0.7874 1.27,-1.27 0.7874,-0.4826 1.7526,-0.4826 h 7.9502 q 0.9906,0 1.778,0.4826 0.7874,0.4826 1.27,1.27 0.4826,0.7874 0.4826,1.7526 v 0.5588 h -3.3528 v -0.4318 q 0,-0.127 -0.1016,-0.2032 -0.0762,-0.1016 -0.2032,-0.1016 h -7.6962 q -0.127,0 -0.2286,0.1016 -0.0762,0.0762 -0.0762,0.2032 v 1.7526 q 0,0.127 0.0762,0.2286 0.1016,0.0762 0.2286,0.0762 h 7.8232 q 0.9906,0 1.778,0.4826 0.7874,0.4826 1.27,1.27 0.4826,0.7874 0.4826,1.7526 v 2.032 q 0,0.9652 -0.4826,1.7526 -0.4826,0.7874 -1.27,1.27 -0.7874,0.4826 -1.778,0.4826 z m 17.551419,0 q -0.9652,0 -1.7526,-0.4826 -0.7874,-0.4826 -1.27,-1.27 -0.4826,-0.7874 -0.4826,-1.7526 v -15.748 h 3.3274 v 4.5212 h 5.740405 v 3.3274 h -5.740405 v 7.7724 q 0,0.127 0.0762,0.2286 0.1016,0.0762 0.2286,0.0762 h 5.435605 v 3.3274 z m 7.769635,0 v 0 -11.2268 q 0,-0.9652 0.4826,-1.7526 0.4826,-0.7874 1.27,-1.27 0.8128,-0.4826 1.7526,-0.4826 h 8.1788 v 3.3274 h -8.0518 q -0.127,0 -0.2286,0.1016 -0.0762,0.0762 -0.0762,0.2032 v 11.0998 z m 17.11411,0 q -0.9652,0 -1.778,-0.4826 -0.7874,-0.4826 -1.27,-1.27 -0.4572,-0.7874 -0.4572,-1.7526 v -5.5372 h 11.6332 v -2.0574 q 0,-0.127 -0.1016,-0.2032 -0.0762,-0.1016 -0.2032,-0.1016 h -11.3284 v -3.3274 h 11.4554 q 0.9652,0 1.7526,0.4826 0.8128,0.4826 1.27,1.27 0.4826,0.7874 0.4826,1.7526 v 11.2268 z m 0.127,-3.3274 h 8.001 v -2.7178 h -8.3058 v 2.413 q 0,0.127 0.0762,0.2286 0.1016,0.0762 0.2286,0.0762 z m 16.00476,9.144 v 0 -3.3528 h 8.8646 q 0.127,0 0.2032,-0.1016 0.1016,-0.0762 0.1016,-0.2032 v -2.159 h -8.128 q -0.9398,0 -1.7526,-0.4826 -0.7874,-0.4826 -1.27,-1.27 -0.4826,-0.7874 -0.4826,-1.7526 v -7.7216 q 0,-0.9652 0.4826,-1.7526 0.4826,-0.7874 1.27,-1.27 0.8128,-0.4826 1.7526,-0.4826 h 7.9756 q 0.9652,0 1.7526,0.4826 0.7874,0.4826 1.2446,1.27 0.4826,0.7874 0.4826,1.7526 v 13.5382 q 0,0.9906 -0.4572,1.778 -0.4572,0.7874 -1.27,1.2446 -0.7874,0.4826 -1.7526,0.4826 z m 1.1684,-9.144 h 7.6962 q 0.127,0 0.2032,-0.0762 0.1016,-0.1016 0.1016,-0.2286 v -7.4676 q 0,-0.127 -0.1016,-0.2032 -0.0762,-0.1016 -0.2032,-0.1016 h -7.6962 q -0.127,0 -0.2286,0.1016 -0.0762,0.0762 -0.0762,0.2032 v 7.4676 q 0,0.127 0.0762,0.2286 0.1016,0.0762 0.2286,0.0762 z m 16.95418,3.3274 q -0.9652,0 -1.7526,-0.4826 -0.7874,-0.4826 -1.27,-1.27 -0.4826,-0.7874 -0.4826,-1.7526 v -7.7216 q 0,-0.9652 0.4826,-1.7526 0.4826,-0.7874 1.27,-1.27 0.7874,-0.4826 1.7526,-0.4826 h 7.9502 q 0.9652,0 1.7526,0.4826 0.8128,0.4826 1.27,1.27 0.4826,0.7874 0.4826,1.7526 v 5.5372 h -11.6332 v 2.0574 q 0,0.127 0.0762,0.2286 0.1016,0.0762 0.2286,0.0762 h 11.3284 v 3.3274 z m -0.1778,-8.6868 h 8.3058 v -2.413 q 0,-0.127 -0.1016,-0.2032 -0.0762,-0.1016 -0.2032,-0.1016 h -7.6962 q -0.127,0 -0.2286,0.1016 -0.0762,0.0762 -0.0762,0.2032 z m 14.32558,8.6868 v 0 -14.732 h 18.2626 q 0.9906,0 1.778,0.4826 0.7874,0.4826 1.2446,1.27 0.4826,0.7874 0.4826,1.7526 v 11.2268 h -3.302 v -11.0998 q 0,-0.127 -0.1016,-0.2032 -0.1016,-0.1016 -0.2286,-0.1016 h -5.2578 q -0.127,0 -0.2286,0.1016 -0.0762,0.0762 -0.0762,0.2032 v 11.0998 h -3.3528 v -11.0998 q 0,-0.127 -0.1016,-0.2032 -0.0762,-0.1016 -0.2032,-0.1016 h -5.2832 q -0.127,0 -0.2286,0.1016 -0.0762,0.0762 -0.0762,0.2032 v 11.0998 z"
       id="text14"
       aria-label="Amostragem" />
  </g>
</svg>
