<?xml version="1.0" encoding="UTF-8" standalone="no"?>
<!-- Created with Inkscape (http://www.inkscape.org/) -->

<svg
   width="193.91206mm"
   height="26.134798mm"
   viewBox="0 0 193.91206 26.134798"
   version="1.1"
   id="svg1"
   xml:space="preserve"
   xmlns:xlink="http://www.w3.org/1999/xlink"
   xmlns="http://www.w3.org/2000/svg"
   xmlns:svg="http://www.w3.org/2000/svg"><defs
     id="defs1"><linearGradient
       id="linearGradient14"><stop
         style="stop-color:#0003ff;stop-opacity:1;"
         offset="0"
         id="stop14" /><stop
         style="stop-color:#00ffff;stop-opacity:1;"
         offset="1"
         id="stop15" /></linearGradient><linearGradient
       xlink:href="#linearGradient14"
       id="linearGradient15"
       x1="30.010712"
       y1="175.3091"
       x2="210.02394"
       y2="175.3091"
       gradientUnits="userSpaceOnUse"
       gradientTransform="translate(-17.659374,-14.670865)" /></defs><g
     id="layer1"
     transform="translate(-12.351371,-147.57084)"><path
       style="font-weight:bold;font-size:25.4px;font-family:Orbitron;-inkscape-font-specification:'Orbitron Bold';fill:url(#linearGradient15);fill-rule:evenodd;stroke:#000000;stroke-width:1.065"
       d="m 12.883871,167.35654 v -14.7574 q 0,-0.9652 0.4826,-1.7526 0.4826,-0.8128 1.27,-1.2954 0.8128,-0.4826 1.778,-0.4826 h 11.2014 q 0.9652,0 1.778,0.4826 0.8128,0.4826 1.2954,1.2954 0.4826,0.7874 0.4826,1.7526 v 14.7574 h -3.3782 v -6.1468 h -11.557 v 6.1468 z m 3.3528,-9.4996 h 11.557 v -5.1054 q 0,-0.127 -0.1016,-0.2032 -0.1016,-0.1016 -0.2286,-0.1016 h -10.922 q -0.127,0 -0.2286,0.1016 -0.0762,0.0762 -0.0762,0.2032 z m 17.780011,9.4996 v 0 -14.732 h 18.2626 q 0.9906,0 1.778,0.4826 0.7874,0.4826 1.2446,1.27 0.4826,0.7874 0.4826,1.7526 v 11.2268 h -3.302 v -11.0998 q 0,-0.127 -0.1016,-0.2032 -0.1016,-0.1016 -0.2286,-0.1016 h -5.2578 q -0.127,0 -0.2286,0.1016 -0.0762,0.0762 -0.0762,0.2032 v 11.0998 h -3.3528 v -11.0998 q 0,-0.127 -0.1016,-0.2032 -0.0762,-0.1016 -0.2032,-0.1016 h -5.2832 q -0.127,0 -0.2286,0.1016 -0.0762,0.0762 -0.0762,0.2032 v 11.0998 z m 28.270216,0 q -0.9652,0 -1.7526,-0.4826 -0.7874,-0.4826 -1.27,-1.27 -0.4826,-0.7874 -0.4826,-1.7526 v -7.7216 q 0,-0.9652 0.4826,-1.7526 0.4826,-0.7874 1.27,-1.27 0.7874,-0.4826 1.7526,-0.4826 h 7.950199 q 0.9652,0 1.7526,0.4826 0.8128,0.4826 1.27,1.27 0.4826,0.7874 0.4826,1.7526 v 7.7216 q 0,0.9652 -0.4826,1.7526 -0.4572,0.7874 -1.2446,1.27 -0.7874,0.4826 -1.778,0.4826 z m 0.127,-3.3274 h 7.696199 q 0.127,0 0.2032,-0.0762 0.1016,-0.1016 0.1016,-0.2286 v -7.4676 q 0,-0.127 -0.1016,-0.2032 -0.0762,-0.1016 -0.2032,-0.1016 h -7.696199 q -0.127,0 -0.2286,0.1016 -0.0762,0.0762 -0.0762,0.2032 v 7.4676 q 0,0.127 0.0762,0.2286 0.1016,0.0762 0.2286,0.0762 z m 16.813058,3.3274 q -0.9652,0 -1.7526,-0.4826 -0.7874,-0.4826 -1.27,-1.27 -0.4826,-0.7874 -0.4826,-1.7526 v -0.5588 h 3.3274 v 0.4318 q 0,0.127 0.0762,0.2286 0.1016,0.0762 0.2286,0.0762 h 7.6962 q 0.127,0 0.2032,-0.0762 0.1016,-0.1016 0.1016,-0.2286 v -1.7526 q 0,-0.127 -0.1016,-0.2032 -0.0762,-0.1016 -0.2032,-0.1016 h -7.8232 q -0.9652,0 -1.7526,-0.4826 -0.7874,-0.4826 -1.27,-1.27 -0.4826,-0.7874 -0.4826,-1.7526 v -2.032 q 0,-0.9652 0.4826,-1.7526 0.4826,-0.7874 1.27,-1.27 0.7874,-0.4826 1.7526,-0.4826 h 7.9502 q 0.9906,0 1.778,0.4826 0.7874,0.4826 1.27,1.27 0.4826,0.7874 0.4826,1.7526 v 0.5588 h -3.3528 v -0.4318 q 0,-0.127 -0.1016,-0.2032 -0.0762,-0.1016 -0.2032,-0.1016 h -7.6962 q -0.127,0 -0.2286,0.1016 -0.0762,0.0762 -0.0762,0.2032 v 1.7526 q 0,0.127 0.0762,0.2286 0.1016,0.0762 0.2286,0.0762 h 7.8232 q 0.9906,0 1.778,0.4826 0.7874,0.4826 1.27,1.27 0.4826,0.7874 0.4826,1.7526 v 2.032 q 0,0.9652 -0.4826,1.7526 -0.4826,0.7874 -1.27,1.27 -0.7874,0.4826 -1.778,0.4826 z m 17.551419,0 q -0.9652,0 -1.7526,-0.4826 -0.7874,-0.4826 -1.27,-1.27 -0.4826,-0.7874 -0.4826,-1.7526 v -15.748 h 3.3274 v 4.5212 h 5.740405 v 3.3274 h -5.740405 v 7.7724 q 0,0.127 0.0762,0.2286 0.1016,0.0762 0.2286,0.0762 h 5.435605 v 3.3274 z m 7.769635,0 v 0 -11.2268 q 0,-0.9652 0.4826,-1.7526 0.4826,-0.7874 1.27,-1.27 0.8128,-0.4826 1.7526,-0.4826 h 8.1788 v 3.3274 h -8.0518 q -0.127,0 -0.2286,0.1016 -0.0762,0.0762 -0.0762,0.2032 v 11.0998 z m 17.11411,0 q -0.9652,0 -1.778,-0.4826 -0.7874,-0.4826 -1.27,-1.27 -0.4572,-0.7874 -0.4572,-1.7526 v -5.5372 h 11.6332 v -2.0574 q 0,-0.127 -0.1016,-0.2032 -0.0762,-0.1016 -0.2032,-0.1016 h -11.3284 v -3.3274 h 11.4554 q 0.9652,0 1.7526,0.4826 0.8128,0.4826 1.27,1.27 0.4826,0.7874 0.4826,1.7526 v 11.2268 z m 0.127,-3.3274 h 8.001 v -2.7178 h -8.3058 v 2.413 q 0,0.127 0.0762,0.2286 0.1016,0.0762 0.2286,0.0762 z m 16.00476,9.144 v 0 -3.3528 h 8.8646 q 0.127,0 0.2032,-0.1016 0.1016,-0.0762 0.1016,-0.2032 v -2.159 h -8.128 q -0.9398,0 -1.7526,-0.4826 -0.7874,-0.4826 -1.27,-1.27 -0.4826,-0.7874 -0.4826,-1.7526 v -7.7216 q 0,-0.9652 0.4826,-1.7526 0.4826,-0.7874 1.27,-1.27 0.8128,-0.4826 1.7526,-0.4826 h 7.9756 q 0.9652,0 1.7526,0.4826 0.7874,0.4826 1.2446,1.27 0.4826,0.7874 0.4826,1.7526 v 13.5382 q 0,0.9906 -0.4572,1.778 -0.4572,0.7874 -1.27,1.2446 -0.7874,0.4826 -1.7526,0.4826 z m 1.1684,-9.144 h 7.6962 q 0.127,0 0.2032,-0.0762 0.1016,-0.1016 0.1016,-0.2286 v -7.4676 q 0,-0.127 -0.1016,-0.2032 -0.0762,-0.1016 -0.2032,-0.1016 h -7.6962 q -0.127,0 -0.2286,0.1016 -0.0762,0.0762 -0.0762,0.2032 v 7.4676 q 0,0.127 0.0762,0.2286 0.1016,0.0762 0.2286,0.0762 z m 16.95418,3.3274 q -0.9652,0 -1.7526,-0.4826 -0.7874,-0.4826 -1.27,-1.27 -0.4826,-0.7874 -0.4826,-1.7526 v -7.7216 q 0,-0.9652 0.4826,-1.7526 0.4826,-0.7874 1.27,-1.27 0.7874,-0.4826 1.7526,-0.4826 h 7.9502 q 0.9652,0 1.7526,0.4826 0.8128,0.4826 1.27,1.27 0.4826,0.7874 0.4826,1.7526 v 5.5372 h -11.6332 v 2.0574 q 0,0.127 0.0762,0.2286 0.1016,0.0762 0.2286,0.0762 h 11.3284 v 3.3274 z m -0.1778,-8.6868 h 8.3058 v -2.413 q 0,-0.127 -0.1016,-0.2032 -0.0762,-0.1016 -0.2032,-0.1016 h -7.6962 q -0.127,0 -0.2286,0.1016 -0.0762,0.0762 -0.0762,0.2032 z m 14.32558,8.6868 v 0 -14.732 h 18.2626 q 0.9906,0 1.778,0.4826 0.7874,0.4826 1.2446,1.27 0.4826,0.7874 0.4826,1.7526 v 11.2268 h -3.302 v -11.0998 q 0,-0.127 -0.1016,-0.2032 -0.1016,-0.1016 -0.2286,-0.1016 h -5.2578 q -0.127,0 -0.2286,0.1016 -0.0762,0.0762 -0.0762,0.2032 v 11.0998 h -3.3528 v -11.0998 q 0,-0.127 -0.1016,-0.2032 -0.0762,-0.1016 -0.2032,-0.1016 h -5.2832 q -0.127,0 -0.2286,0.1016 -0.0762,0.0762 -0.0762,0.2032 v 11.0998 z"
       id="text14"
       aria-label="Amostragem" /></g><g
     id="g1"
     transform="matrix(0.0505305,0,0,0.0505305,184.38161,1.3692264)"><path
       style="fill:#d3d3d3"
       d="m 76.010005,214.799 v 248.608 c 6.041,0.44 12.139,0.673 18.29,0.673 5.371,0 10.696005,-0.19 15.983005,-0.527 V 214.799 Z"
       id="path2" /><path
       style="fill:#eaeaea"
       d="m 76.010005,214.799 v 248.608 c 6.041,0.44 12.139,0.673 18.29,0.673 V 214.799 Z"
       id="path3" /><path
       style="fill:#e5e5e5"
       d="M 94.304005,-5.0461754e-7 C 42.225005,-5.0461754e-7 4.7792238e-6,24.951999 4.7792238e-6,55.731999 V 309.265 c 0,30.78 42.2250002207762,55.732 94.3040002207762,55.732 52.079005,0 94.304005,-24.952 94.304005,-55.732 V 55.731999 c 0,-30.78 -42.225,-55.73199950461756 -94.304005,-55.73199950461754 z"
       id="path4" /><path
       style="fill:#3b3b3b"
       d="m 94.304005,9.9999995 c -45.05,0 -81.575,23.5849995 -81.575,52.6789995 V 302.319 c 0,29.094 36.525,52.679 81.575,52.679 45.050005,0 81.575005,-23.585 81.575005,-52.679 V 62.678999 c 0,-29.094 -36.525,-52.6789995 -81.575005,-52.6789995 z"
       id="path5" /><circle
       style="fill:#ea4949"
       cx="94.304001"
       cy="84.499001"
       r="43"
       id="circle5" /><path
       style="fill:#f25f5f"
       d="m 120.70901,58.092999 c -14.583,-14.583 -38.228005,-14.583 -52.811005,0 -14.584,14.583 -14.584,38.228 0,52.812001 14.584,14.583 67.395005,-38.228001 52.811005,-52.812001 z"
       id="path6" /><circle
       style="fill:#2bbf60"
       cx="94.304001"
       cy="284.99899"
       r="43"
       id="circle6" /><circle
       style="fill:#eab42d"
       cx="94.304001"
       cy="184.99899"
       r="43"
       id="circle7" /><path
       style="fill:#edcb3b"
       d="m 120.70901,159.093 c -14.583,-14.583 -38.228005,-14.583 -52.811005,0 -14.584,14.583 -14.584,38.228 0,52.812 14.584,14.583 67.395005,-38.228 52.811005,-52.812 z"
       id="path7" /><path
       style="fill:#3cce6c"
       d="m 120.70901,259.093 c -14.583,-14.583 -38.228005,-14.583 -52.811005,0 -14.584,14.583 -14.584,38.228 0,52.812 14.584,14.583 67.395005,-38.228 52.811005,-52.812 z"
       id="path8" /></g></svg>
