<?xml version="1.0" encoding="UTF-8" standalone="no"?>
<!-- Created with Inkscape (http://www.inkscape.org/) -->

<svg
   width="114.33933mm"
   height="20.548399mm"
   viewBox="0 0 114.33933 20.548399"
   version="1.1"
   id="svg1"
   xmlns:xlink="http://www.w3.org/1999/xlink"
   xmlns="http://www.w3.org/2000/svg"
   xmlns:svg="http://www.w3.org/2000/svg">
  <defs
     id="defs1">
    <linearGradient
       id="linearGradient23">
      <stop
         style="stop-color:#0600ff;stop-opacity:1;"
         offset="0"
         id="stop23" />
      <stop
         style="stop-color:#0af1ff;stop-opacity:1;"
         offset="1"
         id="stop24" />
    </linearGradient>
    <linearGradient
       xlink:href="#linearGradient23"
       id="linearGradient24"
       x1="11.697981"
       y1="109.89199"
       x2="126.03736"
       y2="109.89199"
       gradientUnits="userSpaceOnUse"
       gradientTransform="translate(6.1474773,172.12937)" />
  </defs>
  <g
     id="layer1"
     transform="translate(-17.845465,-271.74715)">
    <path
       style="font-weight:bold;font-size:25.4px;font-family:Orbitron;-inkscape-font-specification:'Orbitron Bold';fill:url(#linearGradient24);fill-rule:evenodd;stroke:#000000;stroke-width:0.965"
       d="m 21.858565,291.81305 q -0.9652,0 -1.778,-0.4826 -0.7874,-0.4826 -1.27,-1.27 -0.4826,-0.8128 -0.4826,-1.778 v -11.2268 q 0,-0.9652 0.4826,-1.7526 0.4826,-0.8128 1.27,-1.2954 0.8128,-0.4826 1.778,-0.4826 h 14.7066 v 3.3782 h -13.9954 q -0.4064,0 -0.6604,0.2286 -0.2286,0.2286 -0.2286,0.6604 v 9.7536 q 0,0.4064 0.2286,0.6604 0.254,0.2286 0.6604,0.2286 h 13.9954 v 3.3782 z m 17.297413,0 v 0 -19.558 h 3.3274 v 4.826 h 8.128 q 0.9652,0 1.7526,0.4826 0.7874,0.4826 1.27,1.27 0.4826,0.7874 0.4826,1.7526 v 11.2268 h -3.3274 v -11.0998 q 0,-0.127 -0.1016,-0.2032 -0.0762,-0.1016 -0.2032,-0.1016 h -7.6962 q -0.127,0 -0.2286,0.1016 -0.0762,0.0762 -0.0762,0.2032 v 11.0998 z m 20.378694,0 q -0.9652,0 -1.7526,-0.4826 -0.7874,-0.4826 -1.27,-1.27 -0.4826,-0.7874 -0.4826,-1.7526 v -7.7216 q 0,-0.9652 0.4826,-1.7526 0.4826,-0.7874 1.27,-1.27 0.7874,-0.4826 1.7526,-0.4826 h 7.9502 q 0.9652,0 1.7526,0.4826 0.8128,0.4826 1.269999,1.27 0.4826,0.7874 0.4826,1.7526 v 5.5372 H 59.356872 v 2.0574 q 0,0.127 0.0762,0.2286 0.1016,0.0762 0.2286,0.0762 h 11.328399 v 3.3274 z m -0.1778,-8.6868 h 8.3058 v -2.413 q 0,-0.127 -0.1016,-0.2032 -0.0762,-0.1016 -0.2032,-0.1016 h -7.6962 q -0.127,0 -0.2286,0.1016 -0.0762,0.0762 -0.0762,0.2032 z m 14.325582,8.6868 v 0 -19.558 h 3.3274 v 10.5156 h 2.6162 l 5.2578,-5.6896 h 3.556 v 0.9144 l -5.8674,6.4516 5.842,6.4516 v 0.9144 h -3.5306 l -5.2578,-5.6896 h -2.6162 v 5.6896 z m 19.862801,0 q -0.9652,0 -1.7526,-0.4826 -0.7874,-0.4826 -1.27,-1.27 -0.4826,-0.7874 -0.4826,-1.7526 v -16.0782 h 3.3528 v 15.9512 q 0,0.127 0.0762,0.2286 0.1016,0.0762 0.2286,0.0762 h 2.8194 v 3.3274 z m 5.300365,0 v 0 -14.732 h 3.3274 v 14.732 z m 0,-16.2052 v 0 -3.3528 h 3.3274 v 3.3528 z m 9.74265,16.2052 q -0.9652,0 -1.7526,-0.4826 -0.7874,-0.4826 -1.27,-1.27 -0.4826,-0.7874 -0.4826,-1.7526 v -0.5588 h 3.3274 v 0.4318 q 0,0.127 0.0762,0.2286 0.1016,0.0762 0.2286,0.0762 h 7.6962 q 0.127,0 0.2032,-0.0762 0.1016,-0.1016 0.1016,-0.2286 v -1.7526 q 0,-0.127 -0.1016,-0.2032 -0.0762,-0.1016 -0.2032,-0.1016 h -7.8232 q -0.9652,0 -1.7526,-0.4826 -0.7874,-0.4826 -1.27,-1.27 -0.4826,-0.7874 -0.4826,-1.7526 v -2.032 q 0,-0.9652 0.4826,-1.7526 0.4826,-0.7874 1.27,-1.27 0.7874,-0.4826 1.7526,-0.4826 h 7.9502 q 0.9906,0 1.778,0.4826 0.7874,0.4826 1.27,1.27 0.4826,0.7874 0.4826,1.7526 v 0.5588 h -3.3528 v -0.4318 q 0,-0.127 -0.1016,-0.2032 -0.0762,-0.1016 -0.2032,-0.1016 h -7.6962 q -0.127,0 -0.2286,0.1016 -0.0762,0.0762 -0.0762,0.2032 v 1.7526 q 0,0.127 0.0762,0.2286 0.1016,0.0762 0.2286,0.0762 h 7.8232 q 0.9906,0 1.778,0.4826 0.7874,0.4826 1.27,1.27 0.4826,0.7874 0.4826,1.7526 v 2.032 q 0,0.9652 -0.4826,1.7526 -0.4826,0.7874 -1.27,1.27 -0.7874,0.4826 -1.778,0.4826 z m 17.55142,0 q -0.9652,0 -1.7526,-0.4826 -0.7874,-0.4826 -1.27,-1.27 -0.4826,-0.7874 -0.4826,-1.7526 v -15.748 h 3.3274 v 4.5212 h 5.7404 v 3.3274 h -5.7404 v 7.7724 q 0,0.127 0.0762,0.2286 0.1016,0.0762 0.2286,0.0762 h 5.4356 v 3.3274 z"
       id="text13"
       aria-label="Cheklist" />
  </g>
</svg>
