<?xml version="1.0" encoding="UTF-8" standalone="no"?>
<!-- Created with Inkscape (http://www.inkscape.org/) -->

<svg
   width="152.68822mm"
   height="20.622999mm"
   viewBox="0 0 152.68822 20.622999"
   version="1.1"
   id="svg1"
   xmlns:xlink="http://www.w3.org/1999/xlink"
   xmlns="http://www.w3.org/2000/svg"
   xmlns:svg="http://www.w3.org/2000/svg">
  <defs
     id="defs1">
    <linearGradient
       id="linearGradient20">
      <stop
         style="stop-color:#000bff;stop-opacity:1;"
         offset="0"
         id="stop20" />
      <stop
         style="stop-color:#00ffff;stop-opacity:1;"
         offset="1"
         id="stop21" />
    </linearGradient>
    <linearGradient
       xlink:href="#linearGradient20"
       id="linearGradient21"
       x1="18.328358"
       y1="255.92668"
       x2="171.01662"
       y2="255.92668"
       gradientUnits="userSpaceOnUse" />
  </defs>
  <g
     id="layer1"
     transform="translate(-18.328392,-245.61517)">
    <path
       d="m 18.860891,265.70566 v -18.288 h 14.732 q 0.9652,0 1.778,0.4826 0.8128,0.4826 1.2954,1.2954 0.4826,0.7874 0.4826,1.7526 v 11.2268 q 0,0.9652 -0.4826,1.778 -0.4826,0.7874 -1.2954,1.27 -0.8128,0.4826 -1.778,0.4826 z m 3.6322,-3.3782 h 10.9474 q 0.127,0 0.2286,-0.0762 0.1016,-0.1016 0.1016,-0.2286 v -10.922 q 0,-0.127 -0.1016,-0.2032 -0.1016,-0.1016 -0.2286,-0.1016 h -10.9474 q -0.127,0 -0.2286,0.1016 -0.0762,0.0762 -0.0762,0.2032 v 10.922 q 0,0.127 0.0762,0.2286 0.1016,0.0762 0.2286,0.0762 z m 20.90419,3.3782 q -0.9652,0 -1.778,-0.4826 -0.7874,-0.4826 -1.27,-1.27 -0.4572,-0.7874 -0.4572,-1.7526 v -5.5372 h 11.6332 v -2.0574 q 0,-0.127 -0.1016,-0.2032 -0.0762,-0.1016 -0.2032,-0.1016 h -11.3284 v -3.3274 h 11.4554 q 0.9652,0 1.7526,0.4826 0.8128,0.4826 1.27,1.27 0.4826,0.7874 0.4826,1.7526 v 11.2268 z m 0.127,-3.3274 h 8.001 v -2.7178 h -8.3058 v 2.413 q 0,0.127 0.0762,0.2286 0.1016,0.0762 0.2286,0.0762 z m 16.838478,3.3274 q -0.9652,0 -1.7526,-0.4826 -0.7874,-0.4826 -1.27,-1.27 -0.4826,-0.7874 -0.4826,-1.7526 v -0.5588 h 3.3274 v 0.4318 q 0,0.127 0.0762,0.2286 0.1016,0.0762 0.2286,0.0762 h 7.6962 q 0.127,0 0.2032,-0.0762 0.1016,-0.1016 0.1016,-0.2286 v -1.7526 q 0,-0.127 -0.1016,-0.2032 -0.0762,-0.1016 -0.2032,-0.1016 h -7.8232 q -0.9652,0 -1.7526,-0.4826 -0.7874,-0.4826 -1.27,-1.27 -0.4826,-0.7874 -0.4826,-1.7526 v -2.032 q 0,-0.9652 0.4826,-1.7526 0.4826,-0.7874 1.27,-1.27 0.7874,-0.4826 1.7526,-0.4826 h 7.9502 q 0.9906,0 1.778,0.4826 0.7874,0.4826 1.27,1.27 0.4826,0.7874 0.4826,1.7526 v 0.5588 h -3.3528 v -0.4318 q 0,-0.127 -0.1016,-0.2032 -0.0762,-0.1016 -0.2032,-0.1016 h -7.6962 q -0.127,0 -0.2286,0.1016 -0.0762,0.0762 -0.0762,0.2032 v 1.7526 q 0,0.127 0.0762,0.2286 0.1016,0.0762 0.2286,0.0762 h 7.8232 q 0.9906,0 1.778,0.4826 0.7874,0.4826 1.27,1.27 0.4826,0.7874 0.4826,1.7526 v 2.032 q 0,0.9652 -0.4826,1.7526 -0.4826,0.7874 -1.27,1.27 -0.7874,0.4826 -1.778,0.4826 z m 14.071619,0 v 0 -19.558 h 3.3274 v 4.826 h 8.128 q 0.9652,0 1.7526,0.4826 0.7874,0.4826 1.27,1.27 0.4826,0.7874 0.4826,1.7526 v 11.2268 h -3.3274 v -11.0998 q 0,-0.127 -0.1016,-0.2032 -0.0762,-0.1016 -0.2032,-0.1016 h -7.6962 q -0.127,0 -0.2286,0.1016 -0.0762,0.0762 -0.0762,0.2032 v 11.0998 z m 16.967186,0 v 0 -19.558 h 3.3274 v 4.826 h 8.127996 q 0.9652,0 1.7526,0.4826 0.8128,0.4826 1.27,1.27 0.4826,0.7874 0.4826,1.7526 v 7.7216 q 0,0.9652 -0.4826,1.7526 -0.4572,0.7874 -1.27,1.27 -0.7874,0.4826 -1.7526,0.4826 z m 3.6322,-3.3274 h 7.696196 q 0.127,0 0.2032,-0.0762 0.1016,-0.1016 0.1016,-0.2286 v -7.4676 q 0,-0.127 -0.1016,-0.2032 -0.0762,-0.1016 -0.2032,-0.1016 h -7.696196 q -0.127,0 -0.2286,0.1016 -0.0762,0.0762 -0.0762,0.2032 v 7.4676 q 0,0.127 0.0762,0.2286 0.1016,0.0762 0.2286,0.0762 z m 16.738586,3.3274 q -0.9652,0 -1.7526,-0.4826 -0.7874,-0.4826 -1.27,-1.27 -0.4826,-0.7874 -0.4826,-1.7526 v -7.7216 q 0,-0.9652 0.4826,-1.7526 0.4826,-0.7874 1.27,-1.27 0.7874,-0.4826 1.7526,-0.4826 h 7.9502 q 0.9652,0 1.7526,0.4826 0.8128,0.4826 1.27,1.27 0.4826,0.7874 0.4826,1.7526 v 7.7216 q 0,0.9652 -0.4826,1.7526 -0.4572,0.7874 -1.2446,1.27 -0.7874,0.4826 -1.778,0.4826 z m 0.127,-3.3274 h 7.6962 q 0.127,0 0.2032,-0.0762 0.1016,-0.1016 0.1016,-0.2286 v -7.4676 q 0,-0.127 -0.1016,-0.2032 -0.0762,-0.1016 -0.2032,-0.1016 h -7.6962 q -0.127,0 -0.2286,0.1016 -0.0762,0.0762 -0.0762,0.2032 v 7.4676 q 0,0.127 0.0762,0.2286 0.1016,0.0762 0.2286,0.0762 z m 16.92358,3.3274 q -0.9652,0 -1.778,-0.4826 -0.7874,-0.4826 -1.27,-1.27 -0.4572,-0.7874 -0.4572,-1.7526 v -5.5372 h 11.6332 v -2.0574 q 0,-0.127 -0.1016,-0.2032 -0.0762,-0.1016 -0.2032,-0.1016 h -11.3284 v -3.3274 h 11.4554 q 0.9652,0 1.7526,0.4826 0.8128,0.4826 1.27,1.27 0.4826,0.7874 0.4826,1.7526 v 11.2268 z m 0.127,-3.3274 h 8.001 v -2.7178 h -8.3058 v 2.413 q 0,0.127 0.0762,0.2286 0.1016,0.0762 0.2286,0.0762 z m 13.48328,3.3274 v 0 -11.2268 q 0,-0.9652 0.4826,-1.7526 0.4826,-0.7874 1.27,-1.27 0.8128,-0.4826 1.7526,-0.4826 h 8.1788 v 3.3274 h -8.0518 q -0.127,0 -0.2286,0.1016 -0.0762,0.0762 -0.0762,0.2032 v 11.0998 z m 16.57008,0 q -0.9906,0 -1.778,-0.4826 -0.7874,-0.4826 -1.27,-1.27 -0.4572,-0.7874 -0.4572,-1.7526 v -7.7216 q 0,-0.9652 0.4572,-1.7526 0.4826,-0.7874 1.27,-1.27 0.7874,-0.4826 1.778,-0.4826 h 8.1534 v -4.826 h 3.3274 v 19.558 z m 0.1524,-3.3274 h 7.6962 q 0.127,0 0.2032,-0.0762 0.1016,-0.1016 0.1016,-0.2286 v -7.4676 q 0,-0.127 -0.1016,-0.2032 -0.0762,-0.1016 -0.2032,-0.1016 h -7.6962 q -0.127,0 -0.2286,0.1016 -0.0762,0.0762 -0.0762,0.2032 v 7.4676 q 0,0.127 0.0762,0.2286 0.1016,0.0762 0.2286,0.0762 z"
       id="text19"
       style="font-weight:bold;font-size:25.4px;font-family:Orbitron;-inkscape-font-specification:'Orbitron Bold';fill:url(#linearGradient21);fill-rule:evenodd;stroke:#000000;stroke-width:1.065"
       aria-label="Dashboard" />
  </g>
</svg>
