<?xml version="1.0" encoding="UTF-8" standalone="no"?>
<!-- Uploaded to: SVG Repo, www.svgrepo.com, Generator: SVG Repo Mixer Tools -->

<svg
   height="748.27173"
   width="304.10715"
   version="1.1"
   id="Layer_1"
   viewBox="0 0 188.60801 464.08"
   xml:space="preserve"
   xmlns="http://www.w3.org/2000/svg"
   xmlns:svg="http://www.w3.org/2000/svg"><defs
   id="defs8" />

<path
   style="fill:#d3d3d3"
   d="m 76.010005,214.799 v 248.608 c 6.041,0.44 12.139,0.673 18.29,0.673 5.371,0 10.696005,-0.19 15.983005,-0.527 V 214.799 Z"
   id="path2" />
<path
   style="fill:#eaeaea"
   d="m 76.010005,214.799 v 248.608 c 6.041,0.44 12.139,0.673 18.29,0.673 V 214.799 Z"
   id="path3" />
<path
   style="fill:#e5e5e5"
   d="M 94.304005,-5.0461754e-7 C 42.225005,-5.0461754e-7 4.7792238e-6,24.951999 4.7792238e-6,55.731999 V 309.265 c 0,30.78 42.2250002207762,55.732 94.3040002207762,55.732 52.079005,0 94.304005,-24.952 94.304005,-55.732 V 55.731999 c 0,-30.78 -42.225,-55.73199950461756 -94.304005,-55.73199950461754 z"
   id="path4" />
<path
   style="fill:#3b3b3b"
   d="m 94.304005,9.9999995 c -45.05,0 -81.575,23.5849995 -81.575,52.6789995 V 302.319 c 0,29.094 36.525,52.679 81.575,52.679 45.050005,0 81.575005,-23.585 81.575005,-52.679 V 62.678999 c 0,-29.094 -36.525,-52.6789995 -81.575005,-52.6789995 z"
   id="path5" />
<circle
   style="fill:#ea4949"
   cx="94.304001"
   cy="84.499001"
   r="43"
   id="circle5" />
<path
   style="fill:#f25f5f"
   d="m 120.70901,58.092999 c -14.583,-14.583 -38.228005,-14.583 -52.811005,0 -14.584,14.583 -14.584,38.228 0,52.812001 14.584,14.583 67.395005,-38.228001 52.811005,-52.812001 z"
   id="path6" />
<circle
   style="fill:#2bbf60"
   cx="94.304001"
   cy="284.99899"
   r="43"
   id="circle6" />
<circle
   style="fill:#eab42d"
   cx="94.304001"
   cy="184.99899"
   r="43"
   id="circle7" />
<path
   style="fill:#edcb3b"
   d="m 120.70901,159.093 c -14.583,-14.583 -38.228005,-14.583 -52.811005,0 -14.584,14.583 -14.584,38.228 0,52.812 14.584,14.583 67.395005,-38.228 52.811005,-52.812 z"
   id="path7" />
<path
   style="fill:#3cce6c"
   d="m 120.70901,259.093 c -14.583,-14.583 -38.228005,-14.583 -52.811005,0 -14.584,14.583 -14.584,38.228 0,52.812 14.584,14.583 67.395005,-38.228 52.811005,-52.812 z"
   id="path8" />
</svg>
