<?xml version="1.0" encoding="UTF-8" standalone="no"?>
<!-- Created with Inkscape (http://www.inkscape.org/) -->

<svg
   width="171.92332mm"
   height="26.337999mm"
   viewBox="0 0 171.92333 26.338"
   version="1.1"
   id="svg1"
   xml:space="preserve"
   xmlns:xlink="http://www.w3.org/1999/xlink"
   xmlns="http://www.w3.org/2000/svg"
   xmlns:svg="http://www.w3.org/2000/svg"><defs
     id="defs1"><linearGradient
       id="linearGradient18"><stop
         style="stop-color:#0800ff;stop-opacity:1;"
         offset="0"
         id="stop18" /><stop
         style="stop-color:#00ffff;stop-opacity:1;"
         offset="1"
         id="stop19" /></linearGradient><linearGradient
       xlink:href="#linearGradient18"
       id="linearGradient19"
       x1="22.675282"
       y1="211.26186"
       x2="182.44914"
       y2="211.26186"
       gradientUnits="userSpaceOnUse"
       gradientTransform="translate(-9.7805766,9.7805766)" /></defs><g
     id="layer1"
     transform="translate(-12.894739,-207.87345)"><path
       d="m 13.427239,229.84355 v -18.288 h 16.840199 v 3.3782 H 16.805439 v 4.064 h 10.820399 v 3.4036 H 16.805439 v 7.4422 z m 18.211789,0 v 0 -14.732 h 3.3274 v 14.732 z m 0,-16.2052 v 0 -3.3528 h 3.3274 v 3.3528 z m 6.271448,16.2052 v 0 -14.732 h 11.455399 q 0.9652,0 1.7526,0.4826 0.8128,0.4826 1.27,1.27 0.4826,0.7874 0.4826,1.7526 v 11.2268 h -3.3274 v -11.0998 q 0,-0.127 -0.1016,-0.2032 -0.0762,-0.1016 -0.2032,-0.1016 h -7.696199 q -0.127,0 -0.2286,0.1016 -0.0762,0.0762 -0.0762,0.2032 v 11.0998 z m 21.132777,0 q -0.9652,0 -1.778,-0.4826 -0.7874,-0.4826 -1.27,-1.27 -0.4572,-0.7874 -0.4572,-1.7526 v -5.5372 h 11.6332 v -2.0574 q 0,-0.127 -0.1016,-0.2032 -0.0762,-0.1016 -0.2032,-0.1016 h -11.3284 v -3.3274 h 11.4554 q 0.9652,0 1.7526,0.4826 0.8128,0.4826 1.269999,1.27 0.4826,0.7874 0.4826,1.7526 v 11.2268 z m 0.127,-3.3274 h 8.001 v -2.7178 h -8.3058 v 2.413 q 0,0.127 0.0762,0.2286 0.1016,0.0762 0.2286,0.0762 z m 16.948992,3.3274 q -0.9652,0 -1.7526,-0.4826 -0.7874,-0.4826 -1.27,-1.27 -0.4826,-0.7874 -0.4826,-1.7526 v -16.0782 h 3.3528 v 15.9512 q 0,0.127 0.0762,0.2286 0.1016,0.0762 0.2286,0.0762 h 2.8194 v 3.3274 z m 5.300369,0 v 0 -14.732 h 3.3274 v 14.732 z m 0,-16.2052 v 0 -3.3528 h 3.3274 v 3.3528 z m 5.864635,16.2052 v 0 -3.6322 l 10.0584,-7.7724 h -10.0584 v -3.3274 h 14.960601 v 3.6322 l -10.058401,7.7724 h 10.058401 v 3.3274 z m 20.513581,0 q -0.9652,0 -1.778,-0.4826 -0.7874,-0.4826 -1.27,-1.27 -0.4572,-0.7874 -0.4572,-1.7526 v -5.5372 h 11.6332 v -2.0574 q 0,-0.127 -0.1016,-0.2032 -0.0762,-0.1016 -0.2032,-0.1016 h -11.3284 v -3.3274 h 11.4554 q 0.9652,0 1.7526,0.4826 0.8128,0.4826 1.27,1.27 0.4826,0.7874 0.4826,1.7526 v 11.2268 z m 0.127,-3.3274 h 8.001 v -2.7178 h -8.3058 v 2.413 q 0,0.127 0.0762,0.2286 0.1016,0.0762 0.2286,0.0762 z m 17.47521,3.3274 q -0.9652,0 -1.7526,-0.4826 -0.7874,-0.4826 -1.27,-1.27 -0.4826,-0.7874 -0.4826,-1.7526 v -7.7216 q 0,-0.9652 0.4826,-1.7526 0.4826,-0.7874 1.27,-1.27 0.7874,-0.4826 1.7526,-0.4826 h 11.43 v 3.3274 h -11.303 q -0.127,0 -0.2286,0.1016 -0.0762,0.0762 -0.0762,0.2032 v 7.4676 q 0,0.127 0.0762,0.2286 0.1016,0.0762 0.2286,0.0762 h 11.3284 v 3.3274 z m 1.8542,3.8354 1.2192,-4.2164 h 3.3782 l -1.1938,4.2164 z m 15.82419,-3.8354 q -0.9652,0 -1.778,-0.4826 -0.7874,-0.4826 -1.27,-1.27 -0.4572,-0.7874 -0.4572,-1.7526 v -5.5372 h 11.6332 v -2.0574 q 0,-0.127 -0.1016,-0.2032 -0.0762,-0.1016 -0.2032,-0.1016 h -11.3284 v -3.3274 h 11.4554 q 0.9652,0 1.7526,0.4826 0.8128,0.4826 1.27,1.27 0.4826,0.7874 0.4826,1.7526 v 11.2268 z m 0.127,-3.3274 h 8.001 v -2.7178 h -8.3058 v 2.413 q 0,0.127 0.0762,0.2286 0.1016,0.0762 0.2286,0.0762 z m 6.731,-13.3858 q -1.397,0 -2.8956,-1.0922 -1.4478,-1.0668 -2.4638,-1.0668 h -1.6256 v -2.5654 h 2.0066 q 1.2954,0 2.667,1.1176 1.3716,1.1176 2.54,1.1176 h 2.032 v 2.4892 z m 10.7442,16.7132 q -0.9652,0 -1.7526,-0.4826 -0.7874,-0.4826 -1.27,-1.27 -0.4826,-0.7874 -0.4826,-1.7526 v -7.7216 q 0,-0.9652 0.4826,-1.7526 0.4826,-0.7874 1.27,-1.27 0.7874,-0.4826 1.7526,-0.4826 h 7.9502 q 0.9652,0 1.7526,0.4826 0.8128,0.4826 1.27,1.27 0.4826,0.7874 0.4826,1.7526 v 7.7216 q 0,0.9652 -0.4826,1.7526 -0.4572,0.7874 -1.2446,1.27 -0.7874,0.4826 -1.778,0.4826 z m 0.127,-3.3274 h 7.6962 q 0.127,0 0.2032,-0.0762 0.1016,-0.1016 0.1016,-0.2286 v -7.4676 q 0,-0.127 -0.1016,-0.2032 -0.0762,-0.1016 -0.2032,-0.1016 h -7.6962 q -0.127,0 -0.2286,0.1016 -0.0762,0.0762 -0.0762,0.2032 v 7.4676 q 0,0.127 0.0762,0.2286 0.1016,0.0762 0.2286,0.0762 z"
       id="text17"
       style="font-weight:bold;font-size:25.4px;font-family:Orbitron;-inkscape-font-specification:'Orbitron Bold';fill:url(#linearGradient19);fill-rule:evenodd;stroke:#000000;stroke-width:1.065"
       aria-label="Finalização" /></g><g
     id="g1"
     transform="matrix(0.05227212,0,0,0.05227212,162.06439,2.0262862)"><path
       style="fill:#d3d3d3"
       d="m 76.010005,214.799 v 248.608 c 6.041,0.44 12.139,0.673 18.29,0.673 5.371,0 10.696005,-0.19 15.983005,-0.527 V 214.799 Z"
       id="path2" /><path
       style="fill:#eaeaea"
       d="m 76.010005,214.799 v 248.608 c 6.041,0.44 12.139,0.673 18.29,0.673 V 214.799 Z"
       id="path3" /><path
       style="fill:#e5e5e5"
       d="M 94.304005,-5.0461754e-7 C 42.225005,-5.0461754e-7 4.7792238e-6,24.951999 4.7792238e-6,55.731999 V 309.265 c 0,30.78 42.2250002207762,55.732 94.3040002207762,55.732 52.079005,0 94.304005,-24.952 94.304005,-55.732 V 55.731999 c 0,-30.78 -42.225,-55.73199950461756 -94.304005,-55.73199950461754 z"
       id="path4" /><path
       style="fill:#3b3b3b"
       d="m 94.304005,9.9999995 c -45.05,0 -81.575,23.5849995 -81.575,52.6789995 V 302.319 c 0,29.094 36.525,52.679 81.575,52.679 45.050005,0 81.575005,-23.585 81.575005,-52.679 V 62.678999 c 0,-29.094 -36.525,-52.6789995 -81.575005,-52.6789995 z"
       id="path5" /><circle
       style="fill:#ea4949"
       cx="94.304001"
       cy="84.499001"
       r="43"
       id="circle5" /><path
       style="fill:#f25f5f"
       d="m 120.70901,58.092999 c -14.583,-14.583 -38.228005,-14.583 -52.811005,0 -14.584,14.583 -14.584,38.228 0,52.812001 14.584,14.583 67.395005,-38.228001 52.811005,-52.812001 z"
       id="path6" /><circle
       style="fill:#757575;fill-opacity:1"
       cx="94.304001"
       cy="284.99899"
       r="43"
       id="circle6" /><circle
       style="fill:#8b8b8b;fill-opacity:1"
       cx="94.304001"
       cy="184.99899"
       r="43"
       id="circle7" /><path
       style="fill:#949494;fill-opacity:1"
       d="m 120.70901,159.093 c -14.583,-14.583 -38.228005,-14.583 -52.811005,0 -14.584,14.583 -14.584,38.228 0,52.812 14.584,14.583 67.395005,-38.228 52.811005,-52.812 z"
       id="path7" /><path
       style="fill:#858585;fill-opacity:1"
       d="m 120.70901,259.093 c -14.583,-14.583 -38.228005,-14.583 -52.811005,0 -14.584,14.583 -14.584,38.228 0,52.812 14.584,14.583 67.395005,-38.228 52.811005,-52.812 z"
       id="path8" /></g></svg>
