<?xml version="1.0" encoding="UTF-8" standalone="no"?>
<!-- Created with Inkscape (http://www.inkscape.org/) -->

<svg
   width="142.17224mm"
   height="26.337994mm"
   viewBox="0 0 142.17224 26.337994"
   version="1.1"
   id="svg1"
   xmlns:xlink="http://www.w3.org/1999/xlink"
   xmlns="http://www.w3.org/2000/svg"
   xmlns:svg="http://www.w3.org/2000/svg">
  <defs
     id="defs1">
    <linearGradient
       id="linearGradient16">
      <stop
         style="stop-color:#0800ff;stop-opacity:1;"
         offset="0"
         id="stop16" />
      <stop
         style="stop-color:#00ffff;stop-opacity:1;"
         offset="1"
         id="stop17" />
    </linearGradient>
    <linearGradient
       xlink:href="#linearGradient16"
       id="linearGradient17"
       x1="13.684366"
       y1="189.52727"
       x2="155.85669"
       y2="189.52727"
       gradientUnits="userSpaceOnUse" />
  </defs>
  <g
     id="layer1"
     transform="translate(-13.684385,-176.35827)">
    <path
       d="m 14.216886,198.32837 v -18.3134 h 3.3528 v 14.9352 h 14.9352 v 3.3782 z m 19.659583,0 v 0 -14.732 h 3.3274 v 14.732 z m 0,-16.2052 v 0 -3.3528 h 3.3274 v 3.3528 z m 5.689603,16.2052 v 0 -19.558 h 3.3274 v 4.826 h 8.128 q 0.9652,0 1.7526,0.4826 0.8128,0.4826 1.27,1.27 0.4826,0.7874 0.4826,1.7526 v 7.7216 q 0,0.9652 -0.4826,1.7526 -0.4572,0.7874 -1.27,1.27 -0.7874,0.4826 -1.7526,0.4826 z m 3.6322,-3.3274 h 7.6962 q 0.127,0 0.2032,-0.0762 0.1016,-0.1016 0.1016,-0.2286 v -7.4676 q 0,-0.127 -0.1016,-0.2032 -0.0762,-0.1016 -0.2032,-0.1016 h -7.6962 q -0.127,0 -0.2286,0.1016 -0.0762,0.0762 -0.0762,0.2032 v 7.4676 q 0,0.127 0.0762,0.2286 0.1016,0.0762 0.2286,0.0762 z m 16.738594,3.3274 q -0.9652,0 -1.7526,-0.4826 -0.7874,-0.4826 -1.27,-1.27 -0.4826,-0.7874 -0.4826,-1.7526 v -7.7216 q 0,-0.9652 0.4826,-1.7526 0.4826,-0.7874 1.27,-1.27 0.7874,-0.4826 1.7526,-0.4826 h 7.9502 q 0.9652,0 1.7526,0.4826 0.8128,0.4826 1.27,1.27 0.4826,0.7874 0.4826,1.7526 v 5.5372 h -11.6332 v 2.0574 q 0,0.127 0.0762,0.2286 0.1016,0.0762 0.2286,0.0762 h 11.3284 v 3.3274 z m -0.1778,-8.6868 h 8.3058 v -2.413 q 0,-0.127 -0.1016,-0.2032 -0.0762,-0.1016 -0.2032,-0.1016 h -7.6962 q -0.127,0 -0.2286,0.1016 -0.0762,0.0762 -0.0762,0.2032 z m 14.112779,8.6868 v 0 -11.2268 q 0,-0.9652 0.4826,-1.7526 0.4826,-0.7874 1.27,-1.27 0.8128,-0.4826 1.7526,-0.4826 h 8.1788 v 3.3274 h -8.0518 q -0.127,0 -0.2286,0.1016 -0.0762,0.0762 -0.0762,0.2032 v 11.0998 z m 17.11411,0 q -0.9652,0 -1.778,-0.4826 -0.7874,-0.4826 -1.27,-1.27 -0.4572,-0.7874 -0.4572,-1.7526 v -5.5372 h 11.6332 v -2.0574 q 0,-0.127 -0.1016,-0.2032 -0.0762,-0.1016 -0.2032,-0.1016 h -11.3284 v -3.3274 h 11.4554 q 0.9652,0 1.752595,0.4826 0.8128,0.4826 1.27,1.27 0.4826,0.7874 0.4826,1.7526 v 11.2268 z m 0.127,-3.3274 h 8.001 v -2.7178 h -8.3058 v 2.413 q 0,0.127 0.0762,0.2286 0.1016,0.0762 0.2286,0.0762 z m 17.475205,3.3274 q -0.9652,0 -1.7526,-0.4826 -0.7874,-0.4826 -1.27,-1.27 -0.4826,-0.7874 -0.4826,-1.7526 v -7.7216 q 0,-0.9652 0.4826,-1.7526 0.4826,-0.7874 1.27,-1.27 0.7874,-0.4826 1.7526,-0.4826 h 11.43 v 3.3274 h -11.303 q -0.127,0 -0.2286,0.1016 -0.0762,0.0762 -0.0762,0.2032 v 7.4676 q 0,0.127 0.0762,0.2286 0.1016,0.0762 0.2286,0.0762 h 11.3284 v 3.3274 z m 1.8542,3.8354 1.2192,-4.2164 h 3.3782 l -1.1938,4.2164 z m 15.82419,-3.8354 q -0.9652,0 -1.778,-0.4826 -0.7874,-0.4826 -1.27,-1.27 -0.4572,-0.7874 -0.4572,-1.7526 v -5.5372 h 11.6332 v -2.0574 q 0,-0.127 -0.1016,-0.2032 -0.0762,-0.1016 -0.2032,-0.1016 h -11.3284 v -3.3274 h 11.4554 q 0.9652,0 1.7526,0.4826 0.8128,0.4826 1.27,1.27 0.4826,0.7874 0.4826,1.7526 v 11.2268 z m 0.127,-3.3274 h 8.001 v -2.7178 h -8.3058 v 2.413 q 0,0.127 0.0762,0.2286 0.1016,0.0762 0.2286,0.0762 z m 6.731,-13.3858 q -1.397,0 -2.8956,-1.0922 -1.4478,-1.0668 -2.4638,-1.0668 h -1.6256 v -2.5654 h 2.0066 q 1.2954,0 2.667,1.1176 1.3716,1.1176 2.54,1.1176 h 2.032 v 2.4892 z m 10.74421,16.7132 q -0.9652,0 -1.7526,-0.4826 -0.7874,-0.4826 -1.27,-1.27 -0.4826,-0.7874 -0.4826,-1.7526 v -7.7216 q 0,-0.9652 0.4826,-1.7526 0.4826,-0.7874 1.27,-1.27 0.7874,-0.4826 1.7526,-0.4826 h 7.9502 q 0.9652,0 1.7526,0.4826 0.8128,0.4826 1.27,1.27 0.4826,0.7874 0.4826,1.7526 v 7.7216 q 0,0.9652 -0.4826,1.7526 -0.4572,0.7874 -1.2446,1.27 -0.7874,0.4826 -1.778,0.4826 z m 0.127,-3.3274 h 7.6962 q 0.127,0 0.2032,-0.0762 0.1016,-0.1016 0.1016,-0.2286 v -7.4676 q 0,-0.127 -0.1016,-0.2032 -0.0762,-0.1016 -0.2032,-0.1016 h -7.6962 q -0.127,0 -0.2286,0.1016 -0.0762,0.0762 -0.0762,0.2032 v 7.4676 q 0,0.127 0.0762,0.2286 0.1016,0.0762 0.2286,0.0762 z"
       id="text15"
       style="font-weight:bold;font-size:25.4px;font-family:Orbitron;-inkscape-font-specification:'Orbitron Bold';fill:url(#linearGradient17);fill-rule:evenodd;stroke:#000000;stroke-width:1.065"
       aria-label="Liberação" />
  </g>
</svg>
