<?xml version="1.0" encoding="UTF-8" standalone="no"?>
<!-- Created with Inkscape (http://www.inkscape.org/) -->

<svg
   width="159.77379mm"
   height="26.337994mm"
   viewBox="0 0 159.77379 26.337994"
   version="1.1"
   id="svg1"
   xmlns:xlink="http://www.w3.org/1999/xlink"
   xmlns="http://www.w3.org/2000/svg"
   xmlns:svg="http://www.w3.org/2000/svg">
  <defs
     id="defs1">
    <linearGradient
       id="linearGradient18">
      <stop
         style="stop-color:#0800ff;stop-opacity:1;"
         offset="0"
         id="stop18" />
      <stop
         style="stop-color:#00ffff;stop-opacity:1;"
         offset="1"
         id="stop19" />
    </linearGradient>
    <linearGradient
       xlink:href="#linearGradient18"
       id="linearGradient19"
       x1="22.675282"
       y1="211.26186"
       x2="182.44914"
       y2="211.26186"
       gradientUnits="userSpaceOnUse"
       gradientTransform="translate(-9.7805766,9.7805766)" />
  </defs>
  <g
     id="layer1"
     transform="translate(-12.894739,-207.87345)">
    <path
       d="m 13.427239,229.84355 v -18.288 h 16.840199 v 3.3782 H 16.805439 v 4.064 h 10.820399 v 3.4036 H 16.805439 v 7.4422 z m 18.211789,0 v 0 -14.732 h 3.3274 v 14.732 z m 0,-16.2052 v 0 -3.3528 h 3.3274 v 3.3528 z m 6.271448,16.2052 v 0 -14.732 h 11.455399 q 0.9652,0 1.7526,0.4826 0.8128,0.4826 1.27,1.27 0.4826,0.7874 0.4826,1.7526 v 11.2268 h -3.3274 v -11.0998 q 0,-0.127 -0.1016,-0.2032 -0.0762,-0.1016 -0.2032,-0.1016 h -7.696199 q -0.127,0 -0.2286,0.1016 -0.0762,0.0762 -0.0762,0.2032 v 11.0998 z m 21.132777,0 q -0.9652,0 -1.778,-0.4826 -0.7874,-0.4826 -1.27,-1.27 -0.4572,-0.7874 -0.4572,-1.7526 v -5.5372 h 11.6332 v -2.0574 q 0,-0.127 -0.1016,-0.2032 -0.0762,-0.1016 -0.2032,-0.1016 h -11.3284 v -3.3274 h 11.4554 q 0.9652,0 1.7526,0.4826 0.8128,0.4826 1.269999,1.27 0.4826,0.7874 0.4826,1.7526 v 11.2268 z m 0.127,-3.3274 h 8.001 v -2.7178 h -8.3058 v 2.413 q 0,0.127 0.0762,0.2286 0.1016,0.0762 0.2286,0.0762 z m 16.948992,3.3274 q -0.9652,0 -1.7526,-0.4826 -0.7874,-0.4826 -1.27,-1.27 -0.4826,-0.7874 -0.4826,-1.7526 v -16.0782 h 3.3528 v 15.9512 q 0,0.127 0.0762,0.2286 0.1016,0.0762 0.2286,0.0762 h 2.8194 v 3.3274 z m 5.300369,0 v 0 -14.732 h 3.3274 v 14.732 z m 0,-16.2052 v 0 -3.3528 h 3.3274 v 3.3528 z m 5.864635,16.2052 v 0 -3.6322 l 10.0584,-7.7724 h -10.0584 v -3.3274 h 14.960601 v 3.6322 l -10.058401,7.7724 h 10.058401 v 3.3274 z m 20.513581,0 q -0.9652,0 -1.778,-0.4826 -0.7874,-0.4826 -1.27,-1.27 -0.4572,-0.7874 -0.4572,-1.7526 v -5.5372 h 11.6332 v -2.0574 q 0,-0.127 -0.1016,-0.2032 -0.0762,-0.1016 -0.2032,-0.1016 h -11.3284 v -3.3274 h 11.4554 q 0.9652,0 1.7526,0.4826 0.8128,0.4826 1.27,1.27 0.4826,0.7874 0.4826,1.7526 v 11.2268 z m 0.127,-3.3274 h 8.001 v -2.7178 h -8.3058 v 2.413 q 0,0.127 0.0762,0.2286 0.1016,0.0762 0.2286,0.0762 z m 17.47521,3.3274 q -0.9652,0 -1.7526,-0.4826 -0.7874,-0.4826 -1.27,-1.27 -0.4826,-0.7874 -0.4826,-1.7526 v -7.7216 q 0,-0.9652 0.4826,-1.7526 0.4826,-0.7874 1.27,-1.27 0.7874,-0.4826 1.7526,-0.4826 h 11.43 v 3.3274 h -11.303 q -0.127,0 -0.2286,0.1016 -0.0762,0.0762 -0.0762,0.2032 v 7.4676 q 0,0.127 0.0762,0.2286 0.1016,0.0762 0.2286,0.0762 h 11.3284 v 3.3274 z m 1.8542,3.8354 1.2192,-4.2164 h 3.3782 l -1.1938,4.2164 z m 15.82419,-3.8354 q -0.9652,0 -1.778,-0.4826 -0.7874,-0.4826 -1.27,-1.27 -0.4572,-0.7874 -0.4572,-1.7526 v -5.5372 h 11.6332 v -2.0574 q 0,-0.127 -0.1016,-0.2032 -0.0762,-0.1016 -0.2032,-0.1016 h -11.3284 v -3.3274 h 11.4554 q 0.9652,0 1.7526,0.4826 0.8128,0.4826 1.27,1.27 0.4826,0.7874 0.4826,1.7526 v 11.2268 z m 0.127,-3.3274 h 8.001 v -2.7178 h -8.3058 v 2.413 q 0,0.127 0.0762,0.2286 0.1016,0.0762 0.2286,0.0762 z m 6.731,-13.3858 q -1.397,0 -2.8956,-1.0922 -1.4478,-1.0668 -2.4638,-1.0668 h -1.6256 v -2.5654 h 2.0066 q 1.2954,0 2.667,1.1176 1.3716,1.1176 2.54,1.1176 h 2.032 v 2.4892 z m 10.7442,16.7132 q -0.9652,0 -1.7526,-0.4826 -0.7874,-0.4826 -1.27,-1.27 -0.4826,-0.7874 -0.4826,-1.7526 v -7.7216 q 0,-0.9652 0.4826,-1.7526 0.4826,-0.7874 1.27,-1.27 0.7874,-0.4826 1.7526,-0.4826 h 7.9502 q 0.9652,0 1.7526,0.4826 0.8128,0.4826 1.27,1.27 0.4826,0.7874 0.4826,1.7526 v 7.7216 q 0,0.9652 -0.4826,1.7526 -0.4572,0.7874 -1.2446,1.27 -0.7874,0.4826 -1.778,0.4826 z m 0.127,-3.3274 h 7.6962 q 0.127,0 0.2032,-0.0762 0.1016,-0.1016 0.1016,-0.2286 v -7.4676 q 0,-0.127 -0.1016,-0.2032 -0.0762,-0.1016 -0.2032,-0.1016 h -7.6962 q -0.127,0 -0.2286,0.1016 -0.0762,0.0762 -0.0762,0.2032 v 7.4676 q 0,0.127 0.0762,0.2286 0.1016,0.0762 0.2286,0.0762 z"
       id="text17"
       style="font-weight:bold;font-size:25.4px;font-family:Orbitron;-inkscape-font-specification:'Orbitron Bold';fill:url(#linearGradient19);fill-rule:evenodd;stroke:#000000;stroke-width:1.065"
       aria-label="Finalização" />
  </g>
</svg>
